<mxfile host="app.diagrams.net" modified="2023-06-12T12:09:52.683Z" agent="Mozilla/5.0 (Macintosh; Intel Mac OS X 10_15_7) AppleWebKit/537.36 (KHTML, like Gecko) Chrome/114.0.0.0 Safari/537.36" etag="SXu3U5PJoOKrsUIjviXB" version="21.3.5" type="google" pages="3">
  <diagram id="prtHgNgQTEPvFCAcTncT" name="Page-1">
    <mxGraphModel grid="1" page="1" gridSize="10" guides="1" tooltips="1" connect="1" arrows="1" fold="1" pageScale="1" pageWidth="827" pageHeight="1169" math="0" shadow="0">
      <root>
        <mxCell id="0" />
        <mxCell id="1" parent="0" />
        <mxCell id="lh5n1WRBXw3i_pk5e69_-21" value="&lt;br&gt;" style="swimlane;childLayout=stackLayout;resizeParent=1;resizeParentMax=0;startSize=0;html=1;" vertex="1" parent="1">
          <mxGeometry x="234" y="-240" width="1370" height="1360" as="geometry">
            <mxRectangle x="234" y="-260" width="70" height="30" as="alternateBounds" />
          </mxGeometry>
        </mxCell>
        <mxCell id="lh5n1WRBXw3i_pk5e69_-22" value="Gost 2" style="swimlane;startSize=20;html=1;" vertex="1" parent="lh5n1WRBXw3i_pk5e69_-21">
          <mxGeometry width="500" height="1360" as="geometry" />
        </mxCell>
        <mxCell id="lh5n1WRBXw3i_pk5e69_-27" value="" style="ellipse;html=1;shape=startState;fillColor=#000000;strokeColor=#ff0000;" vertex="1" parent="lh5n1WRBXw3i_pk5e69_-22">
          <mxGeometry x="185" y="60" width="30" height="30" as="geometry" />
        </mxCell>
        <mxCell id="lh5n1WRBXw3i_pk5e69_-28" value="" style="edgeStyle=orthogonalEdgeStyle;html=1;verticalAlign=bottom;endArrow=open;endSize=8;strokeColor=#ff0000;rounded=0;" edge="1" parent="lh5n1WRBXw3i_pk5e69_-22" source="lh5n1WRBXw3i_pk5e69_-27" target="lh5n1WRBXw3i_pk5e69_-29">
          <mxGeometry relative="1" as="geometry">
            <mxPoint x="200" y="120" as="targetPoint" />
          </mxGeometry>
        </mxCell>
        <mxCell id="lh5n1WRBXw3i_pk5e69_-29" value="Trazi kreiranje novog foruma" style="html=1;align=center;verticalAlign=middle;rounded=1;absoluteArcSize=1;arcSize=10;dashed=0;whiteSpace=wrap;" vertex="1" parent="lh5n1WRBXw3i_pk5e69_-22">
          <mxGeometry x="130" y="150" width="140" height="70" as="geometry" />
        </mxCell>
        <mxCell id="lh5n1WRBXw3i_pk5e69_-31" value="Unos lokacije" style="html=1;align=center;verticalAlign=middle;rounded=1;absoluteArcSize=1;arcSize=10;dashed=0;whiteSpace=wrap;" vertex="1" parent="lh5n1WRBXw3i_pk5e69_-22">
          <mxGeometry x="130" y="270" width="140" height="70" as="geometry" />
        </mxCell>
        <mxCell id="lh5n1WRBXw3i_pk5e69_-30" value="" style="endArrow=classic;html=1;rounded=0;exitX=0.5;exitY=1;exitDx=0;exitDy=0;entryX=0.5;entryY=0;entryDx=0;entryDy=0;" edge="1" parent="lh5n1WRBXw3i_pk5e69_-22" source="lh5n1WRBXw3i_pk5e69_-29" target="lh5n1WRBXw3i_pk5e69_-31">
          <mxGeometry width="50" height="50" relative="1" as="geometry">
            <mxPoint x="186" y="320" as="sourcePoint" />
            <mxPoint x="236" y="270" as="targetPoint" />
          </mxGeometry>
        </mxCell>
        <mxCell id="lh5n1WRBXw3i_pk5e69_-60" value="Uspesno kreiran zahtev" style="html=1;shape=mxgraph.infographic.ribbonSimple;notch1=20;notch2=0;align=center;verticalAlign=middle;fontSize=14;fontStyle=0;flipH=1;fillColor=#FFFFFF;whiteSpace=wrap;" vertex="1" parent="lh5n1WRBXw3i_pk5e69_-22">
          <mxGeometry x="100" y="615" width="206" height="40" as="geometry" />
        </mxCell>
        <mxCell id="lh5n1WRBXw3i_pk5e69_-62" value="Zatrazi prikaz svih zahteva" style="html=1;align=center;verticalAlign=middle;rounded=1;absoluteArcSize=1;arcSize=10;dashed=0;whiteSpace=wrap;" vertex="1" parent="lh5n1WRBXw3i_pk5e69_-22">
          <mxGeometry x="133" y="720" width="140" height="70" as="geometry" />
        </mxCell>
        <mxCell id="lh5n1WRBXw3i_pk5e69_-61" value="" style="endArrow=classic;html=1;rounded=0;exitX=0.528;exitY=0.989;exitDx=0;exitDy=0;exitPerimeter=0;entryX=0.454;entryY=-0.045;entryDx=0;entryDy=0;entryPerimeter=0;" edge="1" parent="lh5n1WRBXw3i_pk5e69_-22" source="lh5n1WRBXw3i_pk5e69_-60" target="lh5n1WRBXw3i_pk5e69_-62">
          <mxGeometry width="50" height="50" relative="1" as="geometry">
            <mxPoint x="346" y="720" as="sourcePoint" />
            <mxPoint x="396" y="670" as="targetPoint" />
          </mxGeometry>
        </mxCell>
        <mxCell id="lh5n1WRBXw3i_pk5e69_-64" value="Prikaz svih zahteva" style="html=1;align=center;verticalAlign=middle;rounded=1;absoluteArcSize=1;arcSize=10;dashed=0;whiteSpace=wrap;" vertex="1" parent="lh5n1WRBXw3i_pk5e69_-22">
          <mxGeometry x="133" y="900" width="140" height="70" as="geometry" />
        </mxCell>
        <mxCell id="lh5n1WRBXw3i_pk5e69_-65" value="Selektovanje slozenog zahteva" style="html=1;align=center;verticalAlign=middle;rounded=1;absoluteArcSize=1;arcSize=10;dashed=0;whiteSpace=wrap;" vertex="1" parent="lh5n1WRBXw3i_pk5e69_-22">
          <mxGeometry x="133" y="1030" width="140" height="70" as="geometry" />
        </mxCell>
        <mxCell id="lh5n1WRBXw3i_pk5e69_-67" value="Prikaz delova slozene ture" style="html=1;align=center;verticalAlign=middle;rounded=1;absoluteArcSize=1;arcSize=10;dashed=0;whiteSpace=wrap;" vertex="1" parent="lh5n1WRBXw3i_pk5e69_-22">
          <mxGeometry x="133" y="1170" width="140" height="70" as="geometry" />
        </mxCell>
        <mxCell id="lh5n1WRBXw3i_pk5e69_-68" value="" style="endArrow=classic;html=1;rounded=0;exitX=0.5;exitY=1;exitDx=0;exitDy=0;entryX=0.5;entryY=0;entryDx=0;entryDy=0;" edge="1" parent="lh5n1WRBXw3i_pk5e69_-22" source="lh5n1WRBXw3i_pk5e69_-64" target="lh5n1WRBXw3i_pk5e69_-65">
          <mxGeometry width="50" height="50" relative="1" as="geometry">
            <mxPoint x="216" y="1030" as="sourcePoint" />
            <mxPoint x="266" y="980" as="targetPoint" />
          </mxGeometry>
        </mxCell>
        <mxCell id="lh5n1WRBXw3i_pk5e69_-74" value="" style="shape=sumEllipse;perimeter=ellipsePerimeter;whiteSpace=wrap;html=1;backgroundOutline=1;" vertex="1" parent="lh5n1WRBXw3i_pk5e69_-22">
          <mxGeometry x="186" y="1300" width="34" height="30" as="geometry" />
        </mxCell>
        <mxCell id="lh5n1WRBXw3i_pk5e69_-75" value="" style="endArrow=classic;html=1;rounded=0;entryX=0.5;entryY=0;entryDx=0;entryDy=0;exitX=0.5;exitY=1;exitDx=0;exitDy=0;" edge="1" parent="lh5n1WRBXw3i_pk5e69_-22" source="lh5n1WRBXw3i_pk5e69_-67" target="lh5n1WRBXw3i_pk5e69_-74">
          <mxGeometry width="50" height="50" relative="1" as="geometry">
            <mxPoint x="46" y="1280" as="sourcePoint" />
            <mxPoint x="96" y="1230" as="targetPoint" />
          </mxGeometry>
        </mxCell>
        <mxCell id="lh5n1WRBXw3i_pk5e69_-23" value="Sistem" style="swimlane;startSize=20;html=1;" vertex="1" parent="lh5n1WRBXw3i_pk5e69_-21">
          <mxGeometry x="500" width="400" height="1360" as="geometry" />
        </mxCell>
        <mxCell id="lh5n1WRBXw3i_pk5e69_-32" value="Validacija" style="html=1;align=center;verticalAlign=middle;rounded=1;absoluteArcSize=1;arcSize=10;dashed=0;whiteSpace=wrap;" vertex="1" parent="lh5n1WRBXw3i_pk5e69_-23">
          <mxGeometry x="86" y="270" width="140" height="70" as="geometry" />
        </mxCell>
        <mxCell id="lh5n1WRBXw3i_pk5e69_-34" value="" style="rhombus;whiteSpace=wrap;html=1;fontColor=#000000;fillColor=#ffffc0;strokeColor=#ff0000;" vertex="1" parent="lh5n1WRBXw3i_pk5e69_-23">
          <mxGeometry x="266" y="285" width="80" height="40" as="geometry" />
        </mxCell>
        <mxCell id="lh5n1WRBXw3i_pk5e69_-37" value="Da li je unos validan?" style="text;html=1;strokeColor=none;fillColor=none;align=center;verticalAlign=middle;whiteSpace=wrap;rounded=0;" vertex="1" parent="lh5n1WRBXw3i_pk5e69_-23">
          <mxGeometry x="266" y="240" width="60" height="30" as="geometry" />
        </mxCell>
        <mxCell id="lh5n1WRBXw3i_pk5e69_-38" value="" style="endArrow=classic;html=1;rounded=0;exitX=1;exitY=0.5;exitDx=0;exitDy=0;entryX=0;entryY=0.5;entryDx=0;entryDy=0;" edge="1" parent="lh5n1WRBXw3i_pk5e69_-23" source="lh5n1WRBXw3i_pk5e69_-32" target="lh5n1WRBXw3i_pk5e69_-34">
          <mxGeometry width="50" height="50" relative="1" as="geometry">
            <mxPoint x="236" y="390" as="sourcePoint" />
            <mxPoint x="286" y="340" as="targetPoint" />
          </mxGeometry>
        </mxCell>
        <mxCell id="lh5n1WRBXw3i_pk5e69_-42" value="" style="rhombus;whiteSpace=wrap;html=1;fontColor=#000000;fillColor=#ffffc0;strokeColor=#ff0000;" vertex="1" parent="lh5n1WRBXw3i_pk5e69_-23">
          <mxGeometry x="246" y="430" width="80" height="40" as="geometry" />
        </mxCell>
        <mxCell id="lh5n1WRBXw3i_pk5e69_-47" value="Da li imamo jos delova?" style="text;html=1;strokeColor=none;fillColor=none;align=center;verticalAlign=middle;whiteSpace=wrap;rounded=0;" vertex="1" parent="lh5n1WRBXw3i_pk5e69_-23">
          <mxGeometry x="206" y="470" width="60" height="30" as="geometry" />
        </mxCell>
        <mxCell id="lh5n1WRBXw3i_pk5e69_-49" value="Cuvanje zahteva za slozenu turu" style="html=1;align=center;verticalAlign=middle;rounded=1;absoluteArcSize=1;arcSize=10;dashed=0;whiteSpace=wrap;" vertex="1" parent="lh5n1WRBXw3i_pk5e69_-23">
          <mxGeometry x="226" y="600" width="140" height="70" as="geometry" />
        </mxCell>
        <mxCell id="lh5n1WRBXw3i_pk5e69_-50" value="" style="endArrow=classic;html=1;rounded=0;exitX=1;exitY=0.5;exitDx=0;exitDy=0;entryX=0.689;entryY=1.017;entryDx=0;entryDy=0;entryPerimeter=0;" edge="1" parent="lh5n1WRBXw3i_pk5e69_-23" source="lh5n1WRBXw3i_pk5e69_-34">
          <mxGeometry width="50" height="50" relative="1" as="geometry">
            <mxPoint x="196" y="540" as="sourcePoint" />
            <mxPoint x="327.3400000000004" y="450.51" as="targetPoint" />
            <Array as="points">
              <mxPoint x="346" y="380" />
              <mxPoint x="346" y="420" />
              <mxPoint x="346" y="450" />
            </Array>
          </mxGeometry>
        </mxCell>
        <mxCell id="lh5n1WRBXw3i_pk5e69_-51" value="DA" style="text;html=1;strokeColor=none;fillColor=none;align=center;verticalAlign=middle;whiteSpace=wrap;rounded=0;" vertex="1" parent="lh5n1WRBXw3i_pk5e69_-23">
          <mxGeometry x="340" y="290" width="60" height="30" as="geometry" />
        </mxCell>
        <mxCell id="lh5n1WRBXw3i_pk5e69_-52" value="DA" style="text;html=1;strokeColor=none;fillColor=none;align=center;verticalAlign=middle;whiteSpace=wrap;rounded=0;" vertex="1" parent="lh5n1WRBXw3i_pk5e69_-23">
          <mxGeometry x="196" y="410" width="60" height="30" as="geometry" />
        </mxCell>
        <mxCell id="lh5n1WRBXw3i_pk5e69_-53" value="" style="endArrow=classic;html=1;rounded=0;entryX=0.435;entryY=-0.069;entryDx=0;entryDy=0;entryPerimeter=0;exitX=0.5;exitY=1;exitDx=0;exitDy=0;" edge="1" parent="lh5n1WRBXw3i_pk5e69_-23" source="lh5n1WRBXw3i_pk5e69_-42" target="lh5n1WRBXw3i_pk5e69_-49">
          <mxGeometry width="50" height="50" relative="1" as="geometry">
            <mxPoint x="236" y="510" as="sourcePoint" />
            <mxPoint x="286" y="460" as="targetPoint" />
          </mxGeometry>
        </mxCell>
        <mxCell id="lh5n1WRBXw3i_pk5e69_-54" value="NE" style="text;html=1;strokeColor=none;fillColor=none;align=center;verticalAlign=middle;whiteSpace=wrap;rounded=0;" vertex="1" parent="lh5n1WRBXw3i_pk5e69_-23">
          <mxGeometry x="280" y="510" width="60" height="30" as="geometry" />
        </mxCell>
        <mxCell id="lh5n1WRBXw3i_pk5e69_-56" value="Slanje poruke o kreiranju zahteva" style="shape=offPageConnector;whiteSpace=wrap;html=1;direction=south;" vertex="1" parent="lh5n1WRBXw3i_pk5e69_-23">
          <mxGeometry x="10" y="595" width="116" height="80" as="geometry" />
        </mxCell>
        <mxCell id="lh5n1WRBXw3i_pk5e69_-57" value="" style="endArrow=classic;html=1;rounded=0;exitX=0;exitY=0.5;exitDx=0;exitDy=0;entryX=0.5;entryY=0;entryDx=0;entryDy=0;" edge="1" parent="lh5n1WRBXw3i_pk5e69_-23" source="lh5n1WRBXw3i_pk5e69_-49" target="lh5n1WRBXw3i_pk5e69_-56">
          <mxGeometry width="50" height="50" relative="1" as="geometry">
            <mxPoint x="36" y="650" as="sourcePoint" />
            <mxPoint x="86" y="600" as="targetPoint" />
          </mxGeometry>
        </mxCell>
        <mxCell id="lh5n1WRBXw3i_pk5e69_-63" value="Dobavljenje slozenih tura" style="html=1;align=center;verticalAlign=middle;rounded=1;absoluteArcSize=1;arcSize=10;dashed=0;whiteSpace=wrap;" vertex="1" parent="lh5n1WRBXw3i_pk5e69_-23">
          <mxGeometry x="76" y="800" width="140" height="70" as="geometry" />
        </mxCell>
        <mxCell id="lh5n1WRBXw3i_pk5e69_-66" value="Dobavljenje delova slozene ture" style="html=1;align=center;verticalAlign=middle;rounded=1;absoluteArcSize=1;arcSize=10;dashed=0;whiteSpace=wrap;" vertex="1" parent="lh5n1WRBXw3i_pk5e69_-23">
          <mxGeometry x="106" y="1030" width="140" height="70" as="geometry" />
        </mxCell>
        <mxCell id="_ec6ccCCk1V7zQfXuyMO-12" style="edgeStyle=orthogonalEdgeStyle;rounded=0;orthogonalLoop=1;jettySize=auto;html=1;" edge="1" parent="lh5n1WRBXw3i_pk5e69_-23" source="_ec6ccCCk1V7zQfXuyMO-6" target="_ec6ccCCk1V7zQfXuyMO-11">
          <mxGeometry relative="1" as="geometry" />
        </mxCell>
        <mxCell id="JBpDPATE6-ltrw_BMl-s-84" style="edgeStyle=orthogonalEdgeStyle;rounded=0;orthogonalLoop=1;jettySize=auto;html=1;exitX=0.5;exitY=1;exitDx=0;exitDy=0;entryX=0.5;entryY=0;entryDx=0;entryDy=0;" edge="1" parent="lh5n1WRBXw3i_pk5e69_-23" source="_ec6ccCCk1V7zQfXuyMO-6" target="JBpDPATE6-ltrw_BMl-s-83">
          <mxGeometry relative="1" as="geometry" />
        </mxCell>
        <mxCell id="_ec6ccCCk1V7zQfXuyMO-6" value="Validacija" style="html=1;align=center;verticalAlign=middle;rounded=1;absoluteArcSize=1;arcSize=10;dashed=0;whiteSpace=wrap;" vertex="1" parent="lh5n1WRBXw3i_pk5e69_-23">
          <mxGeometry x="226" y="900" width="140" height="70" as="geometry" />
        </mxCell>
        <mxCell id="_ec6ccCCk1V7zQfXuyMO-11" value="" style="rhombus;whiteSpace=wrap;html=1;fontColor=#000000;fillColor=#ffffc0;strokeColor=#ff0000;" vertex="1" parent="lh5n1WRBXw3i_pk5e69_-23">
          <mxGeometry x="246" y="730" width="66" height="35" as="geometry" />
        </mxCell>
        <mxCell id="_ec6ccCCk1V7zQfXuyMO-13" value="Da li je unos validan?" style="text;html=1;strokeColor=none;fillColor=none;align=center;verticalAlign=middle;whiteSpace=wrap;rounded=0;" vertex="1" parent="lh5n1WRBXw3i_pk5e69_-23">
          <mxGeometry x="206" y="710" width="60" height="30" as="geometry" />
        </mxCell>
        <mxCell id="JBpDPATE6-ltrw_BMl-s-79" value="Dobavljanje slozenih tura&lt;br&gt;za vodica" style="html=1;align=center;verticalAlign=middle;rounded=1;absoluteArcSize=1;arcSize=10;dashed=0;whiteSpace=wrap;" vertex="1" parent="lh5n1WRBXw3i_pk5e69_-23">
          <mxGeometry x="130" y="40" width="140" height="70" as="geometry" />
        </mxCell>
        <mxCell id="JBpDPATE6-ltrw_BMl-s-91" style="edgeStyle=orthogonalEdgeStyle;rounded=0;orthogonalLoop=1;jettySize=auto;html=1;" edge="1" parent="lh5n1WRBXw3i_pk5e69_-23" source="JBpDPATE6-ltrw_BMl-s-83" target="JBpDPATE6-ltrw_BMl-s-90">
          <mxGeometry relative="1" as="geometry" />
        </mxCell>
        <mxCell id="JBpDPATE6-ltrw_BMl-s-83" value="Cuvanje izmena" style="html=1;align=center;verticalAlign=middle;rounded=1;absoluteArcSize=1;arcSize=10;dashed=0;whiteSpace=wrap;" vertex="1" parent="lh5n1WRBXw3i_pk5e69_-23">
          <mxGeometry x="226" y="1130" width="140" height="70" as="geometry" />
        </mxCell>
        <mxCell id="JBpDPATE6-ltrw_BMl-s-90" value="Slanje poruke o uspesno prihvacenom zahtevu" style="shape=offPageConnector;whiteSpace=wrap;html=1;direction=south;" vertex="1" parent="lh5n1WRBXw3i_pk5e69_-23">
          <mxGeometry x="224" y="1240" width="116" height="80" as="geometry" />
        </mxCell>
        <mxCell id="9gYkyESVfdt-veo3rux--1" value="" style="shape=waypoint;sketch=0;fillStyle=solid;size=6;pointerEvents=1;points=[];fillColor=none;resizable=0;rotatable=0;perimeter=centerPerimeter;snapToPoint=1;" vertex="1" parent="lh5n1WRBXw3i_pk5e69_-23">
          <mxGeometry x="176" y="850" width="20" height="20" as="geometry" />
        </mxCell>
        <mxCell id="9gYkyESVfdt-veo3rux--2" value="" style="shape=waypoint;sketch=0;fillStyle=solid;size=6;pointerEvents=1;points=[];fillColor=none;resizable=0;rotatable=0;perimeter=centerPerimeter;snapToPoint=1;" vertex="1" parent="lh5n1WRBXw3i_pk5e69_-23">
          <mxGeometry x="196" y="840" width="20" height="20" as="geometry" />
        </mxCell>
        <mxCell id="9gYkyESVfdt-veo3rux--4" value="" style="endArrow=none;html=1;rounded=0;entryX=0.513;entryY=0.767;entryDx=0;entryDy=0;entryPerimeter=0;" edge="1" parent="lh5n1WRBXw3i_pk5e69_-23" source="9gYkyESVfdt-veo3rux--1" target="9gYkyESVfdt-veo3rux--2">
          <mxGeometry width="50" height="50" relative="1" as="geometry">
            <mxPoint x="176" y="870" as="sourcePoint" />
            <mxPoint x="226" y="820" as="targetPoint" />
          </mxGeometry>
        </mxCell>
        <mxCell id="9gYkyESVfdt-veo3rux--8" value="" style="shape=waypoint;sketch=0;fillStyle=solid;size=6;pointerEvents=1;points=[];fillColor=none;resizable=0;rotatable=0;perimeter=centerPerimeter;snapToPoint=1;" vertex="1" parent="lh5n1WRBXw3i_pk5e69_-23">
          <mxGeometry x="224" y="90" width="20" height="20" as="geometry" />
        </mxCell>
        <mxCell id="9gYkyESVfdt-veo3rux--9" value="" style="shape=waypoint;sketch=0;fillStyle=solid;size=6;pointerEvents=1;points=[];fillColor=none;resizable=0;rotatable=0;perimeter=centerPerimeter;snapToPoint=1;" vertex="1" parent="lh5n1WRBXw3i_pk5e69_-23">
          <mxGeometry x="250" y="80" width="20" height="20" as="geometry" />
        </mxCell>
        <mxCell id="9gYkyESVfdt-veo3rux--10" value="" style="endArrow=none;html=1;rounded=0;entryX=0.396;entryY=0.893;entryDx=0;entryDy=0;entryPerimeter=0;" edge="1" parent="lh5n1WRBXw3i_pk5e69_-23" source="9gYkyESVfdt-veo3rux--8" target="9gYkyESVfdt-veo3rux--9">
          <mxGeometry width="50" height="50" relative="1" as="geometry">
            <mxPoint x="126" y="160" as="sourcePoint" />
            <mxPoint x="176" y="110" as="targetPoint" />
          </mxGeometry>
        </mxCell>
        <mxCell id="lh5n1WRBXw3i_pk5e69_-33" value="" style="endArrow=classic;html=1;rounded=0;exitX=1;exitY=0.5;exitDx=0;exitDy=0;entryX=0;entryY=0.5;entryDx=0;entryDy=0;" edge="1" parent="lh5n1WRBXw3i_pk5e69_-21" source="lh5n1WRBXw3i_pk5e69_-31" target="lh5n1WRBXw3i_pk5e69_-32">
          <mxGeometry width="50" height="50" relative="1" as="geometry">
            <mxPoint x="246" y="380" as="sourcePoint" />
            <mxPoint x="296" y="330" as="targetPoint" />
          </mxGeometry>
        </mxCell>
        <mxCell id="lh5n1WRBXw3i_pk5e69_-36" value="NE" style="edgeStyle=orthogonalEdgeStyle;html=1;align=left;verticalAlign=top;endArrow=open;endSize=8;strokeColor=#ff0000;rounded=0;entryX=0.5;entryY=1;entryDx=0;entryDy=0;" edge="1" parent="lh5n1WRBXw3i_pk5e69_-21" source="lh5n1WRBXw3i_pk5e69_-34" target="lh5n1WRBXw3i_pk5e69_-31">
          <mxGeometry x="-1" relative="1" as="geometry">
            <mxPoint x="696" y="420" as="targetPoint" />
            <Array as="points">
              <mxPoint x="806" y="390" />
              <mxPoint x="200" y="390" />
            </Array>
          </mxGeometry>
        </mxCell>
        <mxCell id="lh5n1WRBXw3i_pk5e69_-45" value="" style="endArrow=classic;html=1;rounded=0;exitX=0;exitY=0.5;exitDx=0;exitDy=0;entryX=0.117;entryY=1.038;entryDx=0;entryDy=0;entryPerimeter=0;" edge="1" parent="lh5n1WRBXw3i_pk5e69_-21" source="lh5n1WRBXw3i_pk5e69_-42" target="lh5n1WRBXw3i_pk5e69_-31">
          <mxGeometry width="50" height="50" relative="1" as="geometry">
            <mxPoint x="506" y="420" as="sourcePoint" />
            <mxPoint x="136" y="440" as="targetPoint" />
            <Array as="points">
              <mxPoint x="146" y="450" />
            </Array>
          </mxGeometry>
        </mxCell>
        <mxCell id="lh5n1WRBXw3i_pk5e69_-24" value="Vodic" style="swimlane;startSize=20;html=1;" vertex="1" parent="lh5n1WRBXw3i_pk5e69_-21">
          <mxGeometry x="900" width="470" height="1360" as="geometry" />
        </mxCell>
        <mxCell id="_ec6ccCCk1V7zQfXuyMO-1" value="" style="ellipse;html=1;shape=startState;fillColor=#000000;strokeColor=#ff0000;" vertex="1" parent="lh5n1WRBXw3i_pk5e69_-24">
          <mxGeometry x="231" y="40" width="30" height="30" as="geometry" />
        </mxCell>
        <mxCell id="_ec6ccCCk1V7zQfXuyMO-2" value="" style="edgeStyle=orthogonalEdgeStyle;html=1;verticalAlign=bottom;endArrow=open;endSize=8;strokeColor=#ff0000;rounded=0;entryX=0.5;entryY=0;entryDx=0;entryDy=0;" edge="1" parent="lh5n1WRBXw3i_pk5e69_-24" source="_ec6ccCCk1V7zQfXuyMO-1" target="_ec6ccCCk1V7zQfXuyMO-3">
          <mxGeometry relative="1" as="geometry">
            <mxPoint x="235" y="170" as="targetPoint" />
          </mxGeometry>
        </mxCell>
        <mxCell id="_ec6ccCCk1V7zQfXuyMO-3" value="Trazi prikaz svih zahteva&amp;nbsp;" style="html=1;align=center;verticalAlign=middle;rounded=1;absoluteArcSize=1;arcSize=10;dashed=0;whiteSpace=wrap;" vertex="1" parent="lh5n1WRBXw3i_pk5e69_-24">
          <mxGeometry x="176" y="110" width="140" height="70" as="geometry" />
        </mxCell>
        <mxCell id="_ec6ccCCk1V7zQfXuyMO-4" value="Unosi datum i vreme" style="html=1;align=center;verticalAlign=middle;rounded=1;absoluteArcSize=1;arcSize=10;dashed=0;whiteSpace=wrap;" vertex="1" parent="lh5n1WRBXw3i_pk5e69_-24">
          <mxGeometry x="176" y="380" width="140" height="70" as="geometry" />
        </mxCell>
        <mxCell id="JBpDPATE6-ltrw_BMl-s-82" style="edgeStyle=orthogonalEdgeStyle;rounded=0;orthogonalLoop=1;jettySize=auto;html=1;" edge="1" parent="lh5n1WRBXw3i_pk5e69_-24" source="JBpDPATE6-ltrw_BMl-s-78" target="_ec6ccCCk1V7zQfXuyMO-4">
          <mxGeometry relative="1" as="geometry" />
        </mxCell>
        <mxCell id="JBpDPATE6-ltrw_BMl-s-78" value="Pretraga zahteve za slozene ture" style="html=1;align=center;verticalAlign=middle;rounded=1;absoluteArcSize=1;arcSize=10;dashed=0;whiteSpace=wrap;" vertex="1" parent="lh5n1WRBXw3i_pk5e69_-24">
          <mxGeometry x="176" y="250" width="140" height="70" as="geometry" />
        </mxCell>
        <mxCell id="os8UptK8m6NOvGFfKY3z-2" style="edgeStyle=orthogonalEdgeStyle;rounded=0;orthogonalLoop=1;jettySize=auto;html=1;entryX=0.5;entryY=0;entryDx=0;entryDy=0;" edge="1" parent="lh5n1WRBXw3i_pk5e69_-24" source="JBpDPATE6-ltrw_BMl-s-92" target="os8UptK8m6NOvGFfKY3z-1">
          <mxGeometry relative="1" as="geometry" />
        </mxCell>
        <mxCell id="JBpDPATE6-ltrw_BMl-s-92" value="&lt;font color=&quot;#000000&quot;&gt;Uspesno prihvacen zahtev&lt;/font&gt;" style="html=1;shape=mxgraph.infographic.ribbonSimple;notch1=20;notch2=0;align=center;verticalAlign=middle;fontSize=14;fontStyle=0;flipH=1;fillColor=#FFFFFF;whiteSpace=wrap;" vertex="1" parent="lh5n1WRBXw3i_pk5e69_-24">
          <mxGeometry x="132" y="870" width="206" height="40" as="geometry" />
        </mxCell>
        <mxCell id="os8UptK8m6NOvGFfKY3z-1" value="" style="shape=sumEllipse;perimeter=ellipsePerimeter;whiteSpace=wrap;html=1;backgroundOutline=1;" vertex="1" parent="lh5n1WRBXw3i_pk5e69_-24">
          <mxGeometry x="197" y="1010" width="34" height="30" as="geometry" />
        </mxCell>
        <mxCell id="lh5n1WRBXw3i_pk5e69_-58" value="" style="endArrow=classic;html=1;rounded=0;exitX=0.5;exitY=1;exitDx=0;exitDy=0;entryX=0;entryY=0;entryDx=20;entryDy=20;entryPerimeter=0;" edge="1" parent="lh5n1WRBXw3i_pk5e69_-21" source="lh5n1WRBXw3i_pk5e69_-56" target="lh5n1WRBXw3i_pk5e69_-60">
          <mxGeometry width="50" height="50" relative="1" as="geometry">
            <mxPoint x="536" y="720" as="sourcePoint" />
            <mxPoint x="306" y="635" as="targetPoint" />
          </mxGeometry>
        </mxCell>
        <mxCell id="lh5n1WRBXw3i_pk5e69_-69" value="" style="endArrow=classic;html=1;rounded=0;entryX=0;entryY=0.5;entryDx=0;entryDy=0;exitX=1;exitY=0.5;exitDx=0;exitDy=0;" edge="1" parent="lh5n1WRBXw3i_pk5e69_-21" source="lh5n1WRBXw3i_pk5e69_-65" target="lh5n1WRBXw3i_pk5e69_-66">
          <mxGeometry width="50" height="50" relative="1" as="geometry">
            <mxPoint x="216" y="1030" as="sourcePoint" />
            <mxPoint x="266" y="980" as="targetPoint" />
          </mxGeometry>
        </mxCell>
        <mxCell id="lh5n1WRBXw3i_pk5e69_-71" value="" style="endArrow=classic;html=1;rounded=0;exitX=0.5;exitY=1;exitDx=0;exitDy=0;entryX=1;entryY=0.5;entryDx=0;entryDy=0;" edge="1" parent="lh5n1WRBXw3i_pk5e69_-21" source="lh5n1WRBXw3i_pk5e69_-66" target="lh5n1WRBXw3i_pk5e69_-67">
          <mxGeometry width="50" height="50" relative="1" as="geometry">
            <mxPoint x="216" y="1030" as="sourcePoint" />
            <mxPoint x="266" y="980" as="targetPoint" />
            <Array as="points">
              <mxPoint x="676" y="1205" />
            </Array>
          </mxGeometry>
        </mxCell>
        <mxCell id="lh5n1WRBXw3i_pk5e69_-72" value="" style="endArrow=classic;html=1;rounded=0;entryX=0.5;entryY=0;entryDx=0;entryDy=0;exitX=1;exitY=0.5;exitDx=0;exitDy=0;" edge="1" parent="lh5n1WRBXw3i_pk5e69_-21" source="lh5n1WRBXw3i_pk5e69_-62" target="lh5n1WRBXw3i_pk5e69_-63">
          <mxGeometry width="50" height="50" relative="1" as="geometry">
            <mxPoint x="136" y="950" as="sourcePoint" />
            <mxPoint x="186" y="900" as="targetPoint" />
            <Array as="points">
              <mxPoint x="646" y="755" />
            </Array>
          </mxGeometry>
        </mxCell>
        <mxCell id="lh5n1WRBXw3i_pk5e69_-73" value="" style="endArrow=classic;html=1;rounded=0;entryX=1;entryY=0.5;entryDx=0;entryDy=0;exitX=0.5;exitY=1;exitDx=0;exitDy=0;" edge="1" parent="lh5n1WRBXw3i_pk5e69_-21" source="lh5n1WRBXw3i_pk5e69_-63" target="lh5n1WRBXw3i_pk5e69_-64">
          <mxGeometry width="50" height="50" relative="1" as="geometry">
            <mxPoint x="646" y="940" as="sourcePoint" />
            <mxPoint x="426" y="870" as="targetPoint" />
            <Array as="points">
              <mxPoint x="646" y="935" />
            </Array>
          </mxGeometry>
        </mxCell>
        <mxCell id="_ec6ccCCk1V7zQfXuyMO-8" style="edgeStyle=orthogonalEdgeStyle;rounded=0;orthogonalLoop=1;jettySize=auto;html=1;entryX=1;entryY=0.5;entryDx=0;entryDy=0;" edge="1" parent="lh5n1WRBXw3i_pk5e69_-21" source="_ec6ccCCk1V7zQfXuyMO-4" target="_ec6ccCCk1V7zQfXuyMO-6">
          <mxGeometry relative="1" as="geometry" />
        </mxCell>
        <mxCell id="_ec6ccCCk1V7zQfXuyMO-15" value="NE" style="edgeStyle=orthogonalEdgeStyle;html=1;align=left;verticalAlign=top;endArrow=open;endSize=8;strokeColor=#ff0000;rounded=0;entryX=0;entryY=1;entryDx=0;entryDy=0;exitX=1;exitY=0.5;exitDx=0;exitDy=0;" edge="1" parent="lh5n1WRBXw3i_pk5e69_-21" source="_ec6ccCCk1V7zQfXuyMO-11" target="_ec6ccCCk1V7zQfXuyMO-4">
          <mxGeometry x="-0.8817" relative="1" as="geometry">
            <mxPoint x="576" y="95" as="targetPoint" />
            <Array as="points">
              <mxPoint x="812" y="730" />
              <mxPoint x="1076" y="730" />
            </Array>
            <mxPoint x="1036" y="240" as="sourcePoint" />
            <mxPoint as="offset" />
          </mxGeometry>
        </mxCell>
        <mxCell id="JBpDPATE6-ltrw_BMl-s-80" style="edgeStyle=orthogonalEdgeStyle;rounded=0;orthogonalLoop=1;jettySize=auto;html=1;entryX=1;entryY=0.5;entryDx=0;entryDy=0;" edge="1" parent="lh5n1WRBXw3i_pk5e69_-21" source="_ec6ccCCk1V7zQfXuyMO-3" target="JBpDPATE6-ltrw_BMl-s-79">
          <mxGeometry relative="1" as="geometry" />
        </mxCell>
        <mxCell id="JBpDPATE6-ltrw_BMl-s-81" style="edgeStyle=orthogonalEdgeStyle;rounded=0;orthogonalLoop=1;jettySize=auto;html=1;entryX=0;entryY=0.5;entryDx=0;entryDy=0;exitX=1;exitY=0.5;exitDx=0;exitDy=0;" edge="1" parent="lh5n1WRBXw3i_pk5e69_-21" source="JBpDPATE6-ltrw_BMl-s-79" target="JBpDPATE6-ltrw_BMl-s-78">
          <mxGeometry relative="1" as="geometry">
            <Array as="points">
              <mxPoint x="770" y="110" />
              <mxPoint x="836" y="110" />
              <mxPoint x="836" y="285" />
            </Array>
          </mxGeometry>
        </mxCell>
        <mxCell id="JBpDPATE6-ltrw_BMl-s-93" style="edgeStyle=orthogonalEdgeStyle;rounded=0;orthogonalLoop=1;jettySize=auto;html=1;exitX=0.5;exitY=1;exitDx=0;exitDy=0;entryX=0;entryY=0;entryDx=20;entryDy=20;entryPerimeter=0;" edge="1" parent="lh5n1WRBXw3i_pk5e69_-21" source="JBpDPATE6-ltrw_BMl-s-90" target="JBpDPATE6-ltrw_BMl-s-92">
          <mxGeometry relative="1" as="geometry">
            <mxPoint x="1436" y="920" as="targetPoint" />
            <Array as="points">
              <mxPoint x="704" y="1280" />
              <mxPoint x="704" y="1340" />
              <mxPoint x="1286" y="1340" />
              <mxPoint x="1286" y="890" />
            </Array>
          </mxGeometry>
        </mxCell>
      </root>
    </mxGraphModel>
  </diagram>
  <diagram id="AniPBFEvVO_fLyQTFtSP" name="Page-2">
    <mxGraphModel dx="2074" dy="2231" grid="1" gridSize="10" guides="1" tooltips="1" connect="1" arrows="1" fold="1" page="1" pageScale="1" pageWidth="850" pageHeight="1100" math="0" shadow="0">
      <root>
        <mxCell id="0" />
        <mxCell id="1" parent="0" />
        <mxCell id="yJFGHUMX0S80JKGKRcjZ-1" value="Dobavljanje slozenih tura" style="swimlane;whiteSpace=wrap;html=1;" parent="1" vertex="1">
          <mxGeometry x="100" y="-30" width="750" height="940" as="geometry" />
        </mxCell>
        <mxCell id="H19auceEq5GaLreW2Yzm-2" value="" style="ellipse;html=1;shape=startState;fillColor=#000000;strokeColor=#ff0000;" parent="yJFGHUMX0S80JKGKRcjZ-1" vertex="1">
          <mxGeometry x="80" y="90" width="30" height="30" as="geometry" />
        </mxCell>
        <mxCell id="H19auceEq5GaLreW2Yzm-4" value="Dobavljenje zahteva slozenih tura" style="html=1;align=center;verticalAlign=middle;rounded=1;absoluteArcSize=1;arcSize=10;dashed=0;whiteSpace=wrap;" parent="yJFGHUMX0S80JKGKRcjZ-1" vertex="1">
          <mxGeometry x="260" y="150" width="140" height="70" as="geometry" />
        </mxCell>
        <mxCell id="H19auceEq5GaLreW2Yzm-3" value="" style="edgeStyle=orthogonalEdgeStyle;html=1;verticalAlign=bottom;endArrow=open;endSize=8;strokeColor=#ff0000;rounded=0;" parent="yJFGHUMX0S80JKGKRcjZ-1" source="H19auceEq5GaLreW2Yzm-2" target="H19auceEq5GaLreW2Yzm-4" edge="1">
          <mxGeometry relative="1" as="geometry">
            <mxPoint x="330" y="190" as="targetPoint" />
          </mxGeometry>
        </mxCell>
        <mxCell id="H19auceEq5GaLreW2Yzm-5" value="Dobavljanje delova zahteva" style="html=1;align=center;verticalAlign=middle;rounded=1;absoluteArcSize=1;arcSize=10;dashed=0;whiteSpace=wrap;" parent="yJFGHUMX0S80JKGKRcjZ-1" vertex="1">
          <mxGeometry x="260" y="275" width="140" height="70" as="geometry" />
        </mxCell>
        <mxCell id="H19auceEq5GaLreW2Yzm-6" value="Promena statusa zahteva na prihvacen" style="html=1;align=center;verticalAlign=middle;rounded=1;absoluteArcSize=1;arcSize=10;dashed=0;whiteSpace=wrap;" parent="yJFGHUMX0S80JKGKRcjZ-1" vertex="1">
          <mxGeometry x="260" y="600" width="140" height="70" as="geometry" />
        </mxCell>
        <mxCell id="H19auceEq5GaLreW2Yzm-7" value="Promena statusa zahteva na odbijen" style="html=1;align=center;verticalAlign=middle;rounded=1;absoluteArcSize=1;arcSize=10;dashed=0;whiteSpace=wrap;" parent="yJFGHUMX0S80JKGKRcjZ-1" vertex="1">
          <mxGeometry x="530" y="600" width="140" height="70" as="geometry" />
        </mxCell>
        <mxCell id="vRMemh5QZecuWfpX6vTq-1" value="" style="rhombus;whiteSpace=wrap;html=1;fontColor=#000000;fillColor=#ffffc0;strokeColor=#ff0000;" parent="yJFGHUMX0S80JKGKRcjZ-1" vertex="1">
          <mxGeometry x="300" y="730" width="80" height="40" as="geometry" />
        </mxCell>
        <mxCell id="vRMemh5QZecuWfpX6vTq-5" value="" style="rhombus;whiteSpace=wrap;html=1;fontColor=#000000;fillColor=#ffffc0;strokeColor=#ff0000;" parent="yJFGHUMX0S80JKGKRcjZ-1" vertex="1">
          <mxGeometry x="290" y="400" width="80" height="40" as="geometry" />
        </mxCell>
        <mxCell id="vRMemh5QZecuWfpX6vTq-8" value="" style="rhombus;whiteSpace=wrap;html=1;fontColor=#000000;fillColor=#ffffc0;strokeColor=#ff0000;" parent="yJFGHUMX0S80JKGKRcjZ-1" vertex="1">
          <mxGeometry x="540" y="400" width="80" height="40" as="geometry" />
        </mxCell>
        <mxCell id="vRMemh5QZecuWfpX6vTq-11" value="" style="rhombus;whiteSpace=wrap;html=1;fontColor=#000000;fillColor=#ffffc0;strokeColor=#ff0000;" parent="yJFGHUMX0S80JKGKRcjZ-1" vertex="1">
          <mxGeometry x="290" y="525" width="80" height="40" as="geometry" />
        </mxCell>
        <mxCell id="vRMemh5QZecuWfpX6vTq-4" value="" style="shape=sumEllipse;perimeter=ellipsePerimeter;whiteSpace=wrap;html=1;backgroundOutline=1;" parent="yJFGHUMX0S80JKGKRcjZ-1" vertex="1">
          <mxGeometry x="310" y="850" width="60" height="50" as="geometry" />
        </mxCell>
        <mxCell id="vRMemh5QZecuWfpX6vTq-16" value="" style="endArrow=classic;html=1;rounded=0;entryX=1;entryY=0.5;entryDx=0;entryDy=0;exitX=0.5;exitY=1;exitDx=0;exitDy=0;" parent="yJFGHUMX0S80JKGKRcjZ-1" source="H19auceEq5GaLreW2Yzm-7" target="vRMemh5QZecuWfpX6vTq-1" edge="1">
          <mxGeometry width="50" height="50" relative="1" as="geometry">
            <mxPoint x="80" y="490" as="sourcePoint" />
            <mxPoint x="130" y="440" as="targetPoint" />
            <Array as="points">
              <mxPoint x="600" y="750" />
            </Array>
          </mxGeometry>
        </mxCell>
        <mxCell id="vRMemh5QZecuWfpX6vTq-17" value="" style="endArrow=classic;html=1;rounded=0;entryX=0.5;entryY=0;entryDx=0;entryDy=0;" parent="yJFGHUMX0S80JKGKRcjZ-1" target="vRMemh5QZecuWfpX6vTq-1" edge="1">
          <mxGeometry width="50" height="50" relative="1" as="geometry">
            <mxPoint x="340" y="670" as="sourcePoint" />
            <mxPoint x="140" y="550" as="targetPoint" />
          </mxGeometry>
        </mxCell>
        <mxCell id="vRMemh5QZecuWfpX6vTq-18" value="" style="endArrow=classic;html=1;rounded=0;entryX=0.5;entryY=0;entryDx=0;entryDy=0;exitX=0.5;exitY=1;exitDx=0;exitDy=0;" parent="yJFGHUMX0S80JKGKRcjZ-1" source="vRMemh5QZecuWfpX6vTq-1" target="vRMemh5QZecuWfpX6vTq-4" edge="1">
          <mxGeometry width="50" height="50" relative="1" as="geometry">
            <mxPoint x="70" y="700" as="sourcePoint" />
            <mxPoint x="120" y="650" as="targetPoint" />
          </mxGeometry>
        </mxCell>
        <mxCell id="vRMemh5QZecuWfpX6vTq-19" value="" style="endArrow=classic;html=1;rounded=0;entryX=0.5;entryY=0;entryDx=0;entryDy=0;exitX=0.5;exitY=1;exitDx=0;exitDy=0;" parent="yJFGHUMX0S80JKGKRcjZ-1" source="vRMemh5QZecuWfpX6vTq-5" target="vRMemh5QZecuWfpX6vTq-11" edge="1">
          <mxGeometry width="50" height="50" relative="1" as="geometry">
            <mxPoint x="70" y="420" as="sourcePoint" />
            <mxPoint x="120" y="370" as="targetPoint" />
          </mxGeometry>
        </mxCell>
        <mxCell id="vRMemh5QZecuWfpX6vTq-20" value="" style="endArrow=classic;html=1;rounded=0;entryX=0.5;entryY=0;entryDx=0;entryDy=0;exitX=0.5;exitY=1;exitDx=0;exitDy=0;" parent="yJFGHUMX0S80JKGKRcjZ-1" source="H19auceEq5GaLreW2Yzm-5" target="vRMemh5QZecuWfpX6vTq-5" edge="1">
          <mxGeometry width="50" height="50" relative="1" as="geometry">
            <mxPoint x="100" y="340" as="sourcePoint" />
            <mxPoint x="150" y="290" as="targetPoint" />
          </mxGeometry>
        </mxCell>
        <mxCell id="vRMemh5QZecuWfpX6vTq-24" value="" style="endArrow=classic;html=1;rounded=0;entryX=0.5;entryY=0;entryDx=0;entryDy=0;exitX=0.5;exitY=1;exitDx=0;exitDy=0;" parent="yJFGHUMX0S80JKGKRcjZ-1" source="vRMemh5QZecuWfpX6vTq-11" target="H19auceEq5GaLreW2Yzm-6" edge="1">
          <mxGeometry width="50" height="50" relative="1" as="geometry">
            <mxPoint x="-200" y="650" as="sourcePoint" />
            <mxPoint x="-150" y="600" as="targetPoint" />
          </mxGeometry>
        </mxCell>
        <mxCell id="vRMemh5QZecuWfpX6vTq-23" value="" style="endArrow=classic;html=1;rounded=0;exitX=0;exitY=0.5;exitDx=0;exitDy=0;entryX=0;entryY=0.5;entryDx=0;entryDy=0;" parent="yJFGHUMX0S80JKGKRcjZ-1" source="vRMemh5QZecuWfpX6vTq-11" target="H19auceEq5GaLreW2Yzm-4" edge="1">
          <mxGeometry width="50" height="50" relative="1" as="geometry">
            <mxPoint x="190" y="540" as="sourcePoint" />
            <mxPoint x="240" y="490" as="targetPoint" />
            <Array as="points">
              <mxPoint x="170" y="545" />
              <mxPoint x="170" y="350" />
              <mxPoint x="170" y="185" />
            </Array>
          </mxGeometry>
        </mxCell>
        <mxCell id="vRMemh5QZecuWfpX6vTq-22" value="" style="endArrow=classic;html=1;rounded=0;entryX=0.369;entryY=0.025;entryDx=0;entryDy=0;entryPerimeter=0;exitX=0.5;exitY=1;exitDx=0;exitDy=0;" parent="yJFGHUMX0S80JKGKRcjZ-1" source="vRMemh5QZecuWfpX6vTq-8" target="H19auceEq5GaLreW2Yzm-7" edge="1">
          <mxGeometry width="50" height="50" relative="1" as="geometry">
            <mxPoint x="-240" y="500" as="sourcePoint" />
            <mxPoint x="-190" y="450" as="targetPoint" />
          </mxGeometry>
        </mxCell>
        <mxCell id="vRMemh5QZecuWfpX6vTq-21" value="" style="endArrow=classic;html=1;rounded=0;entryX=0;entryY=0.5;entryDx=0;entryDy=0;exitX=1;exitY=0.5;exitDx=0;exitDy=0;" parent="yJFGHUMX0S80JKGKRcjZ-1" source="vRMemh5QZecuWfpX6vTq-5" target="vRMemh5QZecuWfpX6vTq-8" edge="1">
          <mxGeometry width="50" height="50" relative="1" as="geometry">
            <mxPoint x="430" y="450" as="sourcePoint" />
            <mxPoint x="480" y="400" as="targetPoint" />
          </mxGeometry>
        </mxCell>
        <mxCell id="vRMemh5QZecuWfpX6vTq-29" value="" style="endArrow=classic;html=1;rounded=0;entryX=1;entryY=0.5;entryDx=0;entryDy=0;exitX=0.5;exitY=0;exitDx=0;exitDy=0;" parent="yJFGHUMX0S80JKGKRcjZ-1" source="vRMemh5QZecuWfpX6vTq-8" target="H19auceEq5GaLreW2Yzm-5" edge="1">
          <mxGeometry width="50" height="50" relative="1" as="geometry">
            <mxPoint x="480" y="370" as="sourcePoint" />
            <mxPoint x="660" y="270" as="targetPoint" />
            <Array as="points">
              <mxPoint x="580" y="310" />
            </Array>
          </mxGeometry>
        </mxCell>
        <mxCell id="vRMemh5QZecuWfpX6vTq-26" value="Da li su svi delovi ture prihvaceni?" style="text;html=1;strokeColor=none;fillColor=none;align=center;verticalAlign=middle;whiteSpace=wrap;rounded=0;" parent="yJFGHUMX0S80JKGKRcjZ-1" vertex="1">
          <mxGeometry x="380" y="530" width="60" height="30" as="geometry" />
        </mxCell>
        <mxCell id="vRMemh5QZecuWfpX6vTq-27" value="Da li je deo prihvacen?" style="text;html=1;strokeColor=none;fillColor=none;align=center;verticalAlign=middle;whiteSpace=wrap;rounded=0;" parent="yJFGHUMX0S80JKGKRcjZ-1" vertex="1">
          <mxGeometry x="220" y="400" width="60" height="30" as="geometry" />
        </mxCell>
        <mxCell id="vRMemh5QZecuWfpX6vTq-30" value="" style="endArrow=classic;html=1;rounded=0;entryX=0.5;entryY=0;entryDx=0;entryDy=0;exitX=0.5;exitY=1;exitDx=0;exitDy=0;" parent="yJFGHUMX0S80JKGKRcjZ-1" source="H19auceEq5GaLreW2Yzm-4" target="H19auceEq5GaLreW2Yzm-5" edge="1">
          <mxGeometry width="50" height="50" relative="1" as="geometry">
            <mxPoint x="400" y="240" as="sourcePoint" />
            <mxPoint x="400" y="295" as="targetPoint" />
          </mxGeometry>
        </mxCell>
        <mxCell id="vRMemh5QZecuWfpX6vTq-25" value="DA" style="text;html=1;strokeColor=none;fillColor=none;align=center;verticalAlign=middle;whiteSpace=wrap;rounded=0;" parent="yJFGHUMX0S80JKGKRcjZ-1" vertex="1">
          <mxGeometry x="280" y="450" width="60" height="30" as="geometry" />
        </mxCell>
        <mxCell id="vRMemh5QZecuWfpX6vTq-28" value="NE" style="text;html=1;strokeColor=none;fillColor=none;align=center;verticalAlign=middle;whiteSpace=wrap;rounded=0;" parent="yJFGHUMX0S80JKGKRcjZ-1" vertex="1">
          <mxGeometry x="345" y="380" width="60" height="30" as="geometry" />
        </mxCell>
        <mxCell id="vRMemh5QZecuWfpX6vTq-32" value="DA" style="text;html=1;strokeColor=none;fillColor=none;align=center;verticalAlign=middle;whiteSpace=wrap;rounded=0;" parent="yJFGHUMX0S80JKGKRcjZ-1" vertex="1">
          <mxGeometry x="325" y="560" width="60" height="30" as="geometry" />
        </mxCell>
        <mxCell id="vRMemh5QZecuWfpX6vTq-33" value="NE" style="text;html=1;strokeColor=none;fillColor=none;align=center;verticalAlign=middle;whiteSpace=wrap;rounded=0;" parent="yJFGHUMX0S80JKGKRcjZ-1" vertex="1">
          <mxGeometry x="240" y="510" width="60" height="30" as="geometry" />
        </mxCell>
        <mxCell id="vRMemh5QZecuWfpX6vTq-36" value="NE" style="text;html=1;strokeColor=none;fillColor=none;align=center;verticalAlign=middle;whiteSpace=wrap;rounded=0;" parent="yJFGHUMX0S80JKGKRcjZ-1" vertex="1">
          <mxGeometry x="530" y="380" width="60" height="30" as="geometry" />
        </mxCell>
        <mxCell id="vRMemh5QZecuWfpX6vTq-37" value="Da li je ostalo 48h do prvog dela?" style="text;html=1;strokeColor=none;fillColor=none;align=center;verticalAlign=middle;whiteSpace=wrap;rounded=0;" parent="yJFGHUMX0S80JKGKRcjZ-1" vertex="1">
          <mxGeometry x="630" y="405" width="60" height="30" as="geometry" />
        </mxCell>
        <mxCell id="vUVnp3qIYrSh6p_KPp_w-12" value="" style="endArrow=none;dashed=1;html=1;dashPattern=1 3;strokeWidth=2;rounded=0;" parent="yJFGHUMX0S80JKGKRcjZ-1" edge="1">
          <mxGeometry width="50" height="50" relative="1" as="geometry">
            <mxPoint x="60" y="830" as="sourcePoint" />
            <mxPoint x="720" y="830" as="targetPoint" />
          </mxGeometry>
        </mxCell>
        <mxCell id="vUVnp3qIYrSh6p_KPp_w-14" value="&amp;lt;&amp;lt;iterative&amp;gt;&amp;gt;" style="text;html=1;strokeColor=none;fillColor=none;align=center;verticalAlign=middle;whiteSpace=wrap;rounded=0;" parent="yJFGHUMX0S80JKGKRcjZ-1" vertex="1">
          <mxGeometry x="470" y="190" width="60" height="30" as="geometry" />
        </mxCell>
        <mxCell id="vUVnp3qIYrSh6p_KPp_w-16" value="" style="endArrow=none;dashed=1;html=1;dashPattern=1 3;strokeWidth=2;rounded=0;" parent="yJFGHUMX0S80JKGKRcjZ-1" edge="1">
          <mxGeometry width="50" height="50" relative="1" as="geometry">
            <mxPoint x="700" y="490" as="sourcePoint" />
            <mxPoint x="700" y="370" as="targetPoint" />
          </mxGeometry>
        </mxCell>
        <mxCell id="vRMemh5QZecuWfpX6vTq-34" value="DA" style="text;html=1;strokeColor=none;fillColor=none;align=center;verticalAlign=middle;whiteSpace=wrap;rounded=0;" parent="yJFGHUMX0S80JKGKRcjZ-1" vertex="1">
          <mxGeometry x="540" y="440" width="60" height="30" as="geometry" />
        </mxCell>
        <mxCell id="vUVnp3qIYrSh6p_KPp_w-18" value="" style="endArrow=none;dashed=1;html=1;dashPattern=1 3;strokeWidth=2;rounded=0;" parent="yJFGHUMX0S80JKGKRcjZ-1" edge="1">
          <mxGeometry width="50" height="50" relative="1" as="geometry">
            <mxPoint x="700" y="379.23" as="sourcePoint" />
            <mxPoint x="100" y="379.23" as="targetPoint" />
          </mxGeometry>
        </mxCell>
        <mxCell id="vUVnp3qIYrSh6p_KPp_w-19" value="&amp;lt;&amp;lt;iterative&amp;gt;&amp;gt;" style="text;html=1;strokeColor=none;fillColor=none;align=center;verticalAlign=middle;whiteSpace=wrap;rounded=0;" parent="yJFGHUMX0S80JKGKRcjZ-1" vertex="1">
          <mxGeometry x="460" y="350" width="60" height="30" as="geometry" />
        </mxCell>
        <mxCell id="vUVnp3qIYrSh6p_KPp_w-9" value="" style="endArrow=none;dashed=1;html=1;dashPattern=1 3;strokeWidth=2;rounded=0;" parent="1" edge="1">
          <mxGeometry width="50" height="50" relative="1" as="geometry">
            <mxPoint x="170" y="200" as="sourcePoint" />
            <mxPoint x="820" y="200" as="targetPoint" />
          </mxGeometry>
        </mxCell>
        <mxCell id="vUVnp3qIYrSh6p_KPp_w-10" value="" style="endArrow=none;dashed=1;html=1;dashPattern=1 3;strokeWidth=2;rounded=0;" parent="1" edge="1">
          <mxGeometry width="50" height="50" relative="1" as="geometry">
            <mxPoint x="160" y="200" as="sourcePoint" />
            <mxPoint x="160" y="800" as="targetPoint" />
          </mxGeometry>
        </mxCell>
        <mxCell id="vUVnp3qIYrSh6p_KPp_w-13" value="" style="endArrow=none;dashed=1;html=1;dashPattern=1 3;strokeWidth=2;rounded=0;" parent="1" edge="1">
          <mxGeometry width="50" height="50" relative="1" as="geometry">
            <mxPoint x="820" y="200" as="sourcePoint" />
            <mxPoint x="820" y="800" as="targetPoint" />
          </mxGeometry>
        </mxCell>
        <mxCell id="vUVnp3qIYrSh6p_KPp_w-15" value="" style="endArrow=none;dashed=1;html=1;dashPattern=1 3;strokeWidth=2;rounded=0;" parent="1" edge="1">
          <mxGeometry width="50" height="50" relative="1" as="geometry">
            <mxPoint x="200" y="460" as="sourcePoint" />
            <mxPoint x="200" y="340" as="targetPoint" />
          </mxGeometry>
        </mxCell>
        <mxCell id="vUVnp3qIYrSh6p_KPp_w-17" value="" style="endArrow=none;dashed=1;html=1;dashPattern=1 3;strokeWidth=2;rounded=0;" parent="1" edge="1">
          <mxGeometry width="50" height="50" relative="1" as="geometry">
            <mxPoint x="800" y="460" as="sourcePoint" />
            <mxPoint x="200" y="460" as="targetPoint" />
          </mxGeometry>
        </mxCell>
      </root>
    </mxGraphModel>
  </diagram>
  <diagram id="hukj1WUaTqE1GIxqoacq" name="Page-3">
    <mxGraphModel dx="2074" dy="1131" grid="1" gridSize="10" guides="1" tooltips="1" connect="1" arrows="1" fold="1" page="1" pageScale="1" pageWidth="827" pageHeight="1169" math="0" shadow="0">
      <root>
        <mxCell id="0" />
        <mxCell id="1" parent="0" />
        <mxCell id="8U4_Xf-rjyEHFYKZJj23-1" value="Dobavljanje slozenih tura" style="swimlane;whiteSpace=wrap;html=1;" vertex="1" parent="1">
          <mxGeometry x="50" y="50" width="750" height="940" as="geometry" />
        </mxCell>
        <mxCell id="8U4_Xf-rjyEHFYKZJj23-2" value="" style="ellipse;html=1;shape=startState;fillColor=#000000;strokeColor=#ff0000;" vertex="1" parent="8U4_Xf-rjyEHFYKZJj23-1">
          <mxGeometry x="80" y="90" width="30" height="30" as="geometry" />
        </mxCell>
        <mxCell id="8U4_Xf-rjyEHFYKZJj23-3" value="Dobavljenje zahteva slozenih tura" style="html=1;align=center;verticalAlign=middle;rounded=1;absoluteArcSize=1;arcSize=10;dashed=0;whiteSpace=wrap;" vertex="1" parent="8U4_Xf-rjyEHFYKZJj23-1">
          <mxGeometry x="260" y="150" width="140" height="70" as="geometry" />
        </mxCell>
        <mxCell id="8U4_Xf-rjyEHFYKZJj23-4" value="" style="edgeStyle=orthogonalEdgeStyle;html=1;verticalAlign=bottom;endArrow=open;endSize=8;strokeColor=#ff0000;rounded=0;" edge="1" parent="8U4_Xf-rjyEHFYKZJj23-1" source="8U4_Xf-rjyEHFYKZJj23-2" target="8U4_Xf-rjyEHFYKZJj23-3">
          <mxGeometry relative="1" as="geometry">
            <mxPoint x="330" y="190" as="targetPoint" />
          </mxGeometry>
        </mxCell>
        <mxCell id="8U4_Xf-rjyEHFYKZJj23-5" value="Dobavljanje delova zahteva" style="html=1;align=center;verticalAlign=middle;rounded=1;absoluteArcSize=1;arcSize=10;dashed=0;whiteSpace=wrap;" vertex="1" parent="8U4_Xf-rjyEHFYKZJj23-1">
          <mxGeometry x="260" y="260" width="140" height="70" as="geometry" />
        </mxCell>
        <mxCell id="Lu5T4x2zWMDne-1_ygZR-3" style="edgeStyle=orthogonalEdgeStyle;rounded=0;orthogonalLoop=1;jettySize=auto;html=1;entryX=1;entryY=0.5;entryDx=0;entryDy=0;" edge="1" parent="8U4_Xf-rjyEHFYKZJj23-1" source="8U4_Xf-rjyEHFYKZJj23-9" target="Lu5T4x2zWMDne-1_ygZR-1">
          <mxGeometry relative="1" as="geometry">
            <Array as="points">
              <mxPoint x="330" y="470" />
              <mxPoint x="500" y="470" />
              <mxPoint x="500" y="700" />
            </Array>
          </mxGeometry>
        </mxCell>
        <mxCell id="8U4_Xf-rjyEHFYKZJj23-9" value="" style="rhombus;whiteSpace=wrap;html=1;fontColor=#000000;fillColor=#ffffc0;strokeColor=#ff0000;" vertex="1" parent="8U4_Xf-rjyEHFYKZJj23-1">
          <mxGeometry x="290" y="400" width="80" height="40" as="geometry" />
        </mxCell>
        <mxCell id="8U4_Xf-rjyEHFYKZJj23-16" value="" style="endArrow=classic;html=1;rounded=0;entryX=0.5;entryY=0;entryDx=0;entryDy=0;exitX=0.5;exitY=1;exitDx=0;exitDy=0;" edge="1" parent="8U4_Xf-rjyEHFYKZJj23-1" source="8U4_Xf-rjyEHFYKZJj23-9" target="8U4_Xf-rjyEHFYKZJj23-43">
          <mxGeometry width="50" height="50" relative="1" as="geometry">
            <mxPoint x="70" y="420" as="sourcePoint" />
            <mxPoint x="330" y="525" as="targetPoint" />
          </mxGeometry>
        </mxCell>
        <mxCell id="8U4_Xf-rjyEHFYKZJj23-17" value="" style="endArrow=classic;html=1;rounded=0;entryX=0.5;entryY=0;entryDx=0;entryDy=0;exitX=0.5;exitY=1;exitDx=0;exitDy=0;" edge="1" parent="8U4_Xf-rjyEHFYKZJj23-1" source="8U4_Xf-rjyEHFYKZJj23-5" target="8U4_Xf-rjyEHFYKZJj23-9">
          <mxGeometry width="50" height="50" relative="1" as="geometry">
            <mxPoint x="100" y="340" as="sourcePoint" />
            <mxPoint x="150" y="290" as="targetPoint" />
          </mxGeometry>
        </mxCell>
        <mxCell id="8U4_Xf-rjyEHFYKZJj23-24" value="Da li je vodic vec prihvatio zahtev" style="text;html=1;strokeColor=none;fillColor=none;align=center;verticalAlign=middle;whiteSpace=wrap;rounded=0;" vertex="1" parent="8U4_Xf-rjyEHFYKZJj23-1">
          <mxGeometry x="220" y="400" width="60" height="30" as="geometry" />
        </mxCell>
        <mxCell id="8U4_Xf-rjyEHFYKZJj23-25" value="" style="endArrow=classic;html=1;rounded=0;entryX=0.5;entryY=0;entryDx=0;entryDy=0;exitX=0.5;exitY=1;exitDx=0;exitDy=0;" edge="1" parent="8U4_Xf-rjyEHFYKZJj23-1" source="8U4_Xf-rjyEHFYKZJj23-3" target="8U4_Xf-rjyEHFYKZJj23-5">
          <mxGeometry width="50" height="50" relative="1" as="geometry">
            <mxPoint x="400" y="240" as="sourcePoint" />
            <mxPoint x="400" y="295" as="targetPoint" />
          </mxGeometry>
        </mxCell>
        <mxCell id="8U4_Xf-rjyEHFYKZJj23-26" value="DA" style="text;html=1;strokeColor=none;fillColor=none;align=center;verticalAlign=middle;whiteSpace=wrap;rounded=0;" vertex="1" parent="8U4_Xf-rjyEHFYKZJj23-1">
          <mxGeometry x="280" y="450" width="60" height="30" as="geometry" />
        </mxCell>
        <mxCell id="8U4_Xf-rjyEHFYKZJj23-27" value="NE" style="text;html=1;strokeColor=none;fillColor=none;align=center;verticalAlign=middle;whiteSpace=wrap;rounded=0;" vertex="1" parent="8U4_Xf-rjyEHFYKZJj23-1">
          <mxGeometry x="345" y="380" width="60" height="30" as="geometry" />
        </mxCell>
        <mxCell id="8U4_Xf-rjyEHFYKZJj23-32" value="" style="endArrow=none;dashed=1;html=1;dashPattern=1 3;strokeWidth=2;rounded=0;" edge="1" parent="8U4_Xf-rjyEHFYKZJj23-1">
          <mxGeometry width="50" height="50" relative="1" as="geometry">
            <mxPoint x="60" y="350" as="sourcePoint" />
            <mxPoint x="720" y="350" as="targetPoint" />
          </mxGeometry>
        </mxCell>
        <mxCell id="8U4_Xf-rjyEHFYKZJj23-33" value="&amp;lt;&amp;lt;iterative&amp;gt;&amp;gt;" style="text;html=1;strokeColor=none;fillColor=none;align=center;verticalAlign=middle;whiteSpace=wrap;rounded=0;" vertex="1" parent="8U4_Xf-rjyEHFYKZJj23-1">
          <mxGeometry x="470" y="190" width="60" height="30" as="geometry" />
        </mxCell>
        <mxCell id="8U4_Xf-rjyEHFYKZJj23-34" value="" style="endArrow=none;dashed=1;html=1;dashPattern=1 3;strokeWidth=2;rounded=0;" edge="1" parent="8U4_Xf-rjyEHFYKZJj23-1">
          <mxGeometry width="50" height="50" relative="1" as="geometry">
            <mxPoint x="700" y="570" as="sourcePoint" />
            <mxPoint x="700" y="370" as="targetPoint" />
          </mxGeometry>
        </mxCell>
        <mxCell id="8U4_Xf-rjyEHFYKZJj23-36" value="" style="endArrow=none;dashed=1;html=1;dashPattern=1 3;strokeWidth=2;rounded=0;" edge="1" parent="8U4_Xf-rjyEHFYKZJj23-1">
          <mxGeometry width="50" height="50" relative="1" as="geometry">
            <mxPoint x="700" y="379.23" as="sourcePoint" />
            <mxPoint x="100" y="379.23" as="targetPoint" />
          </mxGeometry>
        </mxCell>
        <mxCell id="8U4_Xf-rjyEHFYKZJj23-37" value="&amp;lt;&amp;lt;iterative&amp;gt;&amp;gt;" style="text;html=1;strokeColor=none;fillColor=none;align=center;verticalAlign=middle;whiteSpace=wrap;rounded=0;" vertex="1" parent="8U4_Xf-rjyEHFYKZJj23-1">
          <mxGeometry x="460" y="350" width="60" height="30" as="geometry" />
        </mxCell>
        <mxCell id="8U4_Xf-rjyEHFYKZJj23-42" value="" style="endArrow=none;dashed=1;html=1;dashPattern=1 3;strokeWidth=2;rounded=0;" edge="1" parent="8U4_Xf-rjyEHFYKZJj23-1">
          <mxGeometry width="50" height="50" relative="1" as="geometry">
            <mxPoint x="700" y="574.5" as="sourcePoint" />
            <mxPoint x="100" y="574.5" as="targetPoint" />
            <Array as="points">
              <mxPoint x="400" y="574.5" />
            </Array>
          </mxGeometry>
        </mxCell>
        <mxCell id="Lu5T4x2zWMDne-1_ygZR-2" style="edgeStyle=orthogonalEdgeStyle;rounded=0;orthogonalLoop=1;jettySize=auto;html=1;entryX=0.5;entryY=0;entryDx=0;entryDy=0;" edge="1" parent="8U4_Xf-rjyEHFYKZJj23-1" source="8U4_Xf-rjyEHFYKZJj23-43" target="Lu5T4x2zWMDne-1_ygZR-1">
          <mxGeometry relative="1" as="geometry" />
        </mxCell>
        <mxCell id="8U4_Xf-rjyEHFYKZJj23-43" value="Izbacivanje svih zaahteva koji su u tojkompleksnoj turi" style="html=1;align=center;verticalAlign=middle;rounded=1;absoluteArcSize=1;arcSize=10;dashed=0;whiteSpace=wrap;" vertex="1" parent="8U4_Xf-rjyEHFYKZJj23-1">
          <mxGeometry x="260" y="500" width="140" height="70" as="geometry" />
        </mxCell>
        <mxCell id="Lu5T4x2zWMDne-1_ygZR-4" style="edgeStyle=orthogonalEdgeStyle;rounded=0;orthogonalLoop=1;jettySize=auto;html=1;entryX=0.5;entryY=0;entryDx=0;entryDy=0;" edge="1" parent="8U4_Xf-rjyEHFYKZJj23-1" source="Lu5T4x2zWMDne-1_ygZR-1" target="GGPfyaQXBe62HeJcMXoQ-1">
          <mxGeometry relative="1" as="geometry">
            <mxPoint x="340" y="840" as="targetPoint" />
          </mxGeometry>
        </mxCell>
        <mxCell id="Lu5T4x2zWMDne-1_ygZR-1" value="" style="rhombus;whiteSpace=wrap;html=1;fontColor=#000000;fillColor=#ffffc0;strokeColor=#ff0000;" vertex="1" parent="8U4_Xf-rjyEHFYKZJj23-1">
          <mxGeometry x="290" y="680" width="80" height="40" as="geometry" />
        </mxCell>
        <mxCell id="GGPfyaQXBe62HeJcMXoQ-1" value="" style="shape=sumEllipse;perimeter=ellipsePerimeter;whiteSpace=wrap;html=1;backgroundOutline=1;" vertex="1" parent="8U4_Xf-rjyEHFYKZJj23-1">
          <mxGeometry x="310" y="840" width="60" height="60" as="geometry" />
        </mxCell>
        <mxCell id="8U4_Xf-rjyEHFYKZJj23-38" value="" style="endArrow=none;dashed=1;html=1;dashPattern=1 3;strokeWidth=2;rounded=0;" edge="1" parent="1">
          <mxGeometry width="50" height="50" relative="1" as="geometry">
            <mxPoint x="120" y="280" as="sourcePoint" />
            <mxPoint x="770" y="280" as="targetPoint" />
          </mxGeometry>
        </mxCell>
        <mxCell id="8U4_Xf-rjyEHFYKZJj23-39" value="" style="endArrow=none;dashed=1;html=1;dashPattern=1 3;strokeWidth=2;rounded=0;" edge="1" parent="1">
          <mxGeometry width="50" height="50" relative="1" as="geometry">
            <mxPoint x="110" y="280" as="sourcePoint" />
            <mxPoint x="110" y="400" as="targetPoint" />
          </mxGeometry>
        </mxCell>
        <mxCell id="8U4_Xf-rjyEHFYKZJj23-40" value="" style="endArrow=none;dashed=1;html=1;dashPattern=1 3;strokeWidth=2;rounded=0;" edge="1" parent="1">
          <mxGeometry width="50" height="50" relative="1" as="geometry">
            <mxPoint x="770" y="280" as="sourcePoint" />
            <mxPoint x="770" y="400" as="targetPoint" />
          </mxGeometry>
        </mxCell>
        <mxCell id="8U4_Xf-rjyEHFYKZJj23-41" value="" style="endArrow=none;dashed=1;html=1;dashPattern=1 3;strokeWidth=2;rounded=0;" edge="1" parent="1">
          <mxGeometry width="50" height="50" relative="1" as="geometry">
            <mxPoint x="150" y="630" as="sourcePoint" />
            <mxPoint x="150" y="420" as="targetPoint" />
          </mxGeometry>
        </mxCell>
      </root>
    </mxGraphModel>
  </diagram>
</mxfile>
